<svg xmlns="http://www.w3.org/2000/svg" viewBox="0 0 383.91 111.09"><defs><style>.cls-1{fill:#bf8fb3;}.cls-2{fill:#d9c5d4;}.cls-3{fill:none;}.cls-4{fill:#f2f2f2;}.cls-5{fill:#a60c8b;}</style></defs><g id="Layer_2" data-name="Layer 2"><g id="Layer_1-2" data-name="Layer 1"><path class="cls-1" d="M184.36,55q0-25.86,13.43-40.43T233.51,0q22.29,0,35.72,14.55T282.66,55q0,26-13.5,41.07t-35.65,15q-22.15,0-35.65-15T184.36,55Zm72,0q0-15.46-6.12-24.25a20.26,20.26,0,0,0-33.4,0q-6,8.79-6,24.25,0,15.76,6,24.9T233.51,89q10.61,0,16.73-9.22T256.36,55Z"/><path class="cls-2" d="M302.41,5.48a11.81,11.81,0,0,0-3.58,8.65V96.82a12.24,12.24,0,0,0,24.47,0V73.48q0-5.78-.5-12.1t-1.54-15.61q-1.06-9.27-1.2-11.53c0-.28.12-.42.35-.42L311.06,1.9A11.79,11.79,0,0,0,302.41,5.48Z"/><path class="cls-1" d="M362.11,76.57,351.7,53.23l-20.95-40.5a20.61,20.61,0,0,0-7.52-7.88A19.8,19.8,0,0,0,312.75,1.9h-1.69l9.35,31.92c.24,0,.4.14.5.42L331.17,57.3l20.95,40.93A20.23,20.23,0,0,0,370,109.05h1.69L362.6,77A.51.51,0,0,1,362.11,76.57Z"/><path class="cls-2" d="M380.32,5.48a12.24,12.24,0,0,0-17.3,0,11.81,11.81,0,0,0-3.58,8.65V37.34q0,12.38,3.37,39.23.13.42-.21.42l9.07,32.06a12.24,12.24,0,0,0,12.24-12.23V14.13A11.82,11.82,0,0,0,380.32,5.48Z"/><path class="cls-3" d="M27.14,44.45h9.28q8,0,12-3.16a10.8,10.8,0,0,0,3.93-8.93q0-5.62-3.86-8.23t-12-2.6H27.14a1.25,1.25,0,0,0-1.41,1.41V43.05A1.24,1.24,0,0,0,27.14,44.45Z"/><path class="cls-3" d="M27.14,89.45H38.53q18.84,0,18.85-13.78,0-6.47-4.58-9.35T38.53,63.44H27.14a1.25,1.25,0,0,0-1.41,1.41v23.2A1.24,1.24,0,0,0,27.14,89.45Z"/><path class="cls-2" d="M25.73,64.85V21.53H0V96.91a11.8,11.8,0,0,0,3.59,8.65,11.77,11.77,0,0,0,8.64,3.58h13.5V64.85Z"/><path class="cls-4" d="M25.73,2H12.23A11.77,11.77,0,0,0,3.59,5.57,11.8,11.8,0,0,0,0,14.22v7.31H25.73Z"/><path class="cls-1" d="M77.27,61.05A26.14,26.14,0,0,0,63.7,52.33c-.19,0-.28-.12-.28-.35s.09-.35.28-.35a20.55,20.55,0,0,0,9.85-9.14,27.57,27.57,0,0,0,3.79-13.93Q77.34,2,37.41,2H25.73v21a1.25,1.25,0,0,1,1.41-1.41h9.28q8.16,0,12,2.6t3.86,8.23a10.8,10.8,0,0,1-3.93,8.93q-3.94,3.16-12,3.16H27.14a1.24,1.24,0,0,1-1.41-1.4v21.8a1.25,1.25,0,0,1,1.41-1.41H38.53q9.7,0,14.27,2.88t4.58,9.35q0,13.78-18.85,13.78H27.14a1.24,1.24,0,0,1-1.41-1.4v21.09H40.5a64.21,64.21,0,0,0,21.23-3.23,31.75,31.75,0,0,0,15-10.55q5.7-7.31,5.7-17.86Q82.41,67.38,77.27,61.05Z"/><path class="cls-2" d="M124.31,66.23V24.75a1.25,1.25,0,0,1,1.41-1.41H98.58V96.89a12.24,12.24,0,0,0,12.23,12.24h13.5V66.23Z"/><path class="cls-1" d="M156,23.34a10.06,10.06,0,0,0,7.46-3.16,10.4,10.4,0,0,0,3.09-7.52,10.41,10.41,0,0,0-3.09-7.53A10.06,10.06,0,0,0,156,2H110.81a11.79,11.79,0,0,0-8.65,3.58,11.81,11.81,0,0,0-3.58,8.65v9.14H156Z"/><path class="cls-1" d="M165,90.63a10.42,10.42,0,0,0-7.66-3.16H125.72a1.25,1.25,0,0,1-1.41-1.41v23.07h33.05A10.84,10.84,0,0,0,165,90.63Z"/><path class="cls-3" d="M216.84,79.88q6,9.14,16.67,9.14t16.73-9.22a35.83,35.83,0,0,0,5.14-13.42H211.75A35.81,35.81,0,0,0,216.84,79.88Z"/><path class="cls-3" d="M233.51,21.94a19.16,19.16,0,0,0-16.67,8.79,34.38,34.38,0,0,0-5.25,14h44a34.13,34.13,0,0,0-5.32-14A19.33,19.33,0,0,0,233.51,21.94Z"/><path class="cls-1" d="M255.38,66.38a35.83,35.83,0,0,1-5.14,13.42Q244.12,89,233.51,89t-16.67-9.14a35.81,35.81,0,0,1-5.09-13.5H185.09q2.39,18.08,12.77,29.67,13.5,15,35.65,15t35.65-15q10.47-11.68,12.81-30a10.68,10.68,0,0,1-2.49.3Z"/><path class="cls-1" d="M216.84,30.73a20.26,20.26,0,0,1,33.4,0,34.13,34.13,0,0,1,5.32,14h23.92a11.12,11.12,0,0,1,2.62.32Q280,26.2,269.23,14.55,255.79,0,233.51,0T197.79,14.55Q187.15,26.08,185,44.72h26.64A34.38,34.38,0,0,1,216.84,30.73Z"/><path d="M210.8,55a63.69,63.69,0,0,0,.95,11.4h43.63a62.82,62.82,0,0,0,1-11.4,62.75,62.75,0,0,0-.8-10.26h-44A62.79,62.79,0,0,0,210.8,55Z"/><path d="M185,44.72H125.72a1.25,1.25,0,0,1-1.41-1.41V67.78a1.24,1.24,0,0,1,1.41-1.4h59.37A89.44,89.44,0,0,1,185,44.72Z"/><path d="M290.17,55.55A10.45,10.45,0,0,0,287,47.88,10.56,10.56,0,0,0,282.1,45a85.69,85.69,0,0,1,.56,9.94,87.37,87.37,0,0,1-.69,11.1,10.86,10.86,0,0,0,8.2-10.53Z"/><path class="cls-1" d="M210.8,55a62.79,62.79,0,0,1,.79-10.26H185a89.44,89.44,0,0,0,.14,21.66h26.66A63.69,63.69,0,0,1,210.8,55Z"/><path d="M282.1,45a11.12,11.12,0,0,0-2.62-.32H255.56a62.75,62.75,0,0,1,.8,10.26,62.82,62.82,0,0,1-1,11.4h24.1a10.68,10.68,0,0,0,2.49-.3,87.37,87.37,0,0,0,.69-11.1A85.69,85.69,0,0,0,282.1,45Z"/><path class="cls-5" d="M288.27,55.55a10.46,10.46,0,0,0-3.17-7.67,10.23,10.23,0,0,0-6.19-3.07v-.09H225.14a10.27,10.27,0,0,0-7.52,3.16,10.85,10.85,0,0,0,0,15.33,10.28,10.28,0,0,0,7.52,3.17h53.77v-.09a10.3,10.3,0,0,0,6.19-3.08A10.43,10.43,0,0,0,288.27,55.55Z"/></g></g></svg>