<svg xmlns="http://www.w3.org/2000/svg" viewBox="0 0 338.16 319.96"><defs><style>.cls-1{fill:#d9c5d4;}.cls-2{fill:#bf8fb3;}.cls-3{fill:#a60c8b;}</style></defs><g id="Layer_2" data-name="Layer 2"><g id="Layer_1-2" data-name="Layer 1"><path class="cls-1" d="M80.54,297.47c-2,15.8-1.79,15.54-14.56,6.65C-5,254.7-37.25,117.05,65.27,36.25c73.61-58,175.27-44.51,236.27,27.27,56.26,66.19,45.8,179.77-18.43,234.17a58.85,58.85,0,0,1-6.43,5c-4.92,3.09-10.74,9.44-11.09-3.53-.19-6.69-4.67-2.89-7.24-1.62-19,9.43-38.87,16.49-59.85,20.15-37.3,6.52-72.45-1.75-106.81-15.48C88,300.78,84.34,299.12,80.54,297.47Zm-13-6.77c0-5.43.1-9.45,0-13.46Q66,226.09,64.44,175c-.33-11.67,0-11.91,11-9.27,27.18,6.5,54.4,12.86,81.49,19.72a46.06,46.06,0,0,0,25-.21c27.52-7.92,55.34-14.77,82.8-22.85,9.31-2.73,10.9-.07,10.95,8.58.16,34.44.89,68.88,1.55,103.32.07,3.52-1.17,7.36,1.33,10.71,34.16-26.05,62.72-97.76,41.29-164.46C298.78,55,234.16,9.1,164.85,10.17c-65.06,1-129.42,50.49-147.58,113.5C.28,182.57,23.73,262.41,67.54,290.7Zm52.18-47.21c2.94-.31,6-.44,9-1,7-1.28,13.62-3.6,15.5-11.31,1.79-7.35-3.08-12.43-8.23-16.39-12.93-9.93-27.88-12.74-43.51-9.26-13.15,2.92-16.28,14.24-7,23.82s21.21,13,34.22,14.14Zm122-41.67c-16.37.22-29.14,4.34-39,14.94-8,8.59-5.42,18.87,5.27,22.78,15.26,5.57,40.78-2.42,49.84-15.61,6-8.7,3.75-16.62-6.15-20.24-3.78-1.37-8-1.53-9.94-1.87ZM171.1,303.73c14.28.2,25.59-7.81,29.15-20.74,1.21-4.37,2.15-8.26-5.14-6.55a102.72,102.72,0,0,1-45.39.74c-6.58-1.41-6.75,1.71-5.19,6.66C148.32,295.9,158.44,303.55,171.1,303.73Z"/><path class="cls-2" d="M67.07,289.88c0-5.43.09-9.45,0-13.46Q65.56,225.27,64,174.17c-.33-11.68,0-11.92,11-9.28,27.19,6.51,54.41,12.87,81.5,19.72a46,46,0,0,0,25-.21c27.52-7.91,55.34-14.77,82.8-22.84,9.31-2.74,10.9-.08,10.94,8.58.17,34.44.9,68.87,1.56,103.31.07,3.52-1.18,7.37,1.32,10.71,34.17-26,62.73-97.75,41.3-164.46C298.36,54.12,233.74,8.27,164.43,9.33,99.37,10.33,35,59.82,16.85,122.83-.17,181.75,23.28,261.59,67.07,289.88Z"/><path class="cls-3" d="M119.7,243.49c2.94-.31,6-.44,9-1,7-1.28,13.62-3.6,15.5-11.31,1.79-7.35-3.08-12.43-8.23-16.39-12.93-9.93-27.88-12.74-43.51-9.26-13.15,2.92-16.28,14.24-7,23.82S106.69,242.34,119.7,243.49Z"/><path class="cls-3" d="M241.74,201.82c-16.37.22-29.14,4.34-39,14.94-8,8.59-5.42,18.87,5.27,22.78,15.26,5.57,40.78-2.42,49.84-15.61,6-8.7,3.75-16.62-6.15-20.24C247.9,202.32,243.68,202.16,241.74,201.82Z"/><path class="cls-3" d="M171.1,303.73c14.28.2,25.59-7.81,29.15-20.74,1.21-4.37,2.15-8.26-5.14-6.55a102.72,102.72,0,0,1-45.39.74c-6.58-1.41-6.75,1.71-5.19,6.66C148.32,295.9,158.44,303.55,171.1,303.73Z"/></g></g></svg>